<?xml version="1.0" standalone="no"?>
<!DOCTYPE svg PUBLIC "-//W3C//DTD SVG 20010904//EN"
 "http://www.w3.org/TR/2001/REC-SVG-20010904/DTD/svg10.dtd">
<svg version="1.0" xmlns="http://www.w3.org/2000/svg"
 width="50.000000pt" height="50.000000pt" viewBox="0 0 50.000000 50.000000"
 preserveAspectRatio="xMidYMid meet">
<metadata>
Created by potrace 1.10, written by Peter Selinger 2001-2011
</metadata>
<g transform="translate(0.000000,50.000000) scale(0.100000,-0.100000)"
fill="#000000" stroke="none">
<path d="M42 492 c-28 -9 -5 -90 42 -140 26 -30 68 -52 98 -52 21 -1 20 -2 -7
-14 -47 -20 -75 -104 -61 -181 7 -37 65 -112 75 -98 3 4 24 18 46 29 49 27 88
94 83 142 -3 25 0 32 14 32 23 0 52 44 45 70 -4 16 0 20 22 20 38 0 71 26 71
56 0 15 -12 38 -29 55 -26 25 -27 29 -10 29 10 0 19 5 19 11 0 8 -16 10 -50 5
-55 -7 -72 10 -20 21 17 3 30 10 30 15 0 6 -14 7 -32 3 -45 -10 -50 -14 -45
-36 3 -10 -1 -23 -9 -30 -8 -6 -14 -18 -14 -25 0 -23 -14 -15 -35 18 -35 55
-64 69 -146 72 -41 1 -80 1 -87 -2z m81 -24 c22 -7 58 -29 80 -49 l39 -38 -23
-30 c-14 -19 -32 -31 -46 -31 -29 0 -92 56 -109 97 -27 64 -17 74 59 51z m115
-33 c25 -25 42 -49 38 -52 -4 -4 -22 9 -39 30 -18 20 -45 43 -62 52 -28 14
-29 15 -6 15 15 0 40 -17 69 -45z m134 -33 c-5 -35 18 -56 53 -50 28 6 36 -16
9 -26 -74 -28 -145 34 -97 86 24 27 40 23 35 -10z m56 -4 c19 -19 14 -30 -10
-26 -13 2 -24 11 -26 21 -4 20 18 23 36 5z m-102 -75 c37 -40 42 -64 19 -83
-33 -28 -125 19 -125 63 0 27 28 57 53 57 10 0 35 -17 53 -37z m-96 -78 c13
-14 29 -25 36 -25 14 0 39 -28 31 -36 -17 -17 -127 49 -127 76 0 19 37 10 60
-15z m7 -69 c18 -9 39 -16 48 -16 17 0 19 -8 6 -29 -18 -29 -151 40 -151 78 0
30 13 32 39 7 14 -13 40 -31 58 -40z m14 -71 c16 -4 27 -11 23 -16 -9 -15 -56
-10 -101 12 -33 16 -43 26 -43 45 l0 24 46 -30 c25 -16 59 -32 75 -35z m-87
-22 c4 -5 22 -13 39 -19 l32 -12 -28 -7 c-20 -5 -33 -3 -47 10 -21 19 -26 35
-12 35 5 0 12 -3 16 -7z"/>
</g>
</svg>
